<?xml version="1.0" encoding="UTF-8"?>
<svg id="_레이어_1" data-name="레이어_1" xmlns="http://www.w3.org/2000/svg" version="1.1" viewBox="0 0 160 39">
  <!-- Generator: Adobe Illustrator 29.7.1, SVG Export Plug-In . SVG Version: 2.1.1 Build 8)  -->
  <defs>
    <style>
      .st0 {
        fill: #ff2d96;
      }
    </style>
  </defs>
  <g id="surface1">
    <path class="st0" d="M82.7,10.4c-1.3-.2-3.5.7-4.5,1.6,0,0,0,0,0,0,0,0,0,0,0,0,0-.8,0-1.2-.3-1.4-.4-.2-3.3-.3-4.2,0-.1,0-.2.1-.3.2,0,.1,0,.5-.2,1.3-.4,2.8-1.3,10.4-3.4,11.3-.4.2-1.2.2-1.5-.3-.5-1.1.7-5.7,1.5-8.7.7-2.6.9-3.5.8-3.7-.2-.3-1.2-.4-3.7-.3-.2,0-.3,0-.4,0,0,0-.2,0-.2.1-.2.2-.2.9-.2,1s0,0,0,0c0,0,0,0,0,0-1.8-1.5-4.2-1.9-6.5-.9-4,1.7-5.6,6.3-5.8,10,0,.1,0,.2-.1.3-.4.6-1.4,1.4-2.2,1.9.3-1.7,1.2-7.5,1.6-10.4.1-.7.2-1.3.2-1.4,0-.1,0-.3-.2-.4-.7-.6-3.5-.3-3.8-.2-.2,0-.3.4-.3.9,0,0,0,0,0,0,0,0,0,0-.1,0-.6-.4-1.9-1.1-4.1-1.2h0c-4.5,0-7.6,4.5-7.9,11.6,0,1.5-1.1,1.6-1.4,1.6-.7,0-1.4-.5-1.4-1.1,0-.8.2-1.9.5-3.2.3-1.4.8-2.9,1.1-4.1.8-2.8,1-3.9.8-4.2-.3-.3-1.3-.5-2.3-.5-.9,0-1.8.1-2.3.3-.3.1-.4,1-.7,3.1-.4,3.1-.9,7.8-2.7,9.3-.5.4-1.1.7-1.7.8-.2,0-.4,0-.5,0-.2,0-.5-.2-.7-.4-.2-.2-.3-.5-.3-.8,0-2.5,1.2-7.8,1.7-10.5v-.7c.2-.1.1-.3-.1-.5-.8-.6-3.3-.6-3.9-.2-.5.3-1.2,4.6-2.1,10.1l-.3,2.1c0,.9.2,1.6.5,2.2.2.6.5,1.1,1.1,1.5,1.7,1.3,4.1,1.1,5.4.8,1.6-.5,2.3-1.5,2.5-2.1.3.8,1.2,1.6,2.1,2,2.2.9,4.5,0,5.6-2.4,2,2.2,5.4,3.7,8.8,1,0,0,0,0,0,0,0,0,0,0,0,0,0,1.1-.2,1.8-.6,2.3-.8.9-2.4.9-3.8.9-1,0-1.9,0-2.6.2-2.9.9-3.8,3.3-3.6,5.2.2,2,1.5,4.2,4.2,4.5.5,0,1,.1,1.4.1,3.6,0,6.6-2,8-5.5.3-.7.5-1.7.8-2.8.4-1.7.8-3.5,1.5-4.3.3-.3.7-.6,1.2-.9.4-.3.8-.5,1.1-.8,0,0,0,0,0,0,0,0,0,0,0,0,1.1,1.7,2.8,2.8,4.8,2.9,1.8.1,3.6-.6,4.8-1.9.4.9,1.2,1.5,2.4,1.8,1.8.4,3.8-.2,4.5-.9,0,.1,0,.3,0,.6h0c.2.5,2.6.4,2.6.4,1.3,0,2-.2,2.1-.5,0-.2,0-.6.2-1.4.2-2.3.7-7.2,2.2-8.5,1.7-1.5,3.1-1.7,4.1-1.8.5,0,.8-.1,1-.3.6-.5,1.2-3.3.7-4.2-.1-.3-.4-.4-.8-.5h0ZM43,34.5c-1.3.7-2.1.4-2.4.1-.4-.3-.7-.8-.6-1.3,0-.4.3-.7.7-.9.4-.2,1.1-.2,1.8-.3.9,0,1.9-.2,2.7-.6-.1,1.1-1.2,2.4-2.1,2.9ZM46.6,21.6c-.8,1.7-2.3,2.6-3.6,2.2-.6-.2-1.1-.6-1.4-1.2-.9-2.1.7-6,.9-6.4.7-1.6,2.1-2.4,3.2-2.4s.2,0,.3,0c.8.1,1.2.6,1.3,1.3.2,1.7-.2,5.3-.8,6.5ZM63.6,21.6c-.8,1.7-2.3,2.6-3.6,2.2-.6-.2-1.1-.6-1.4-1.2-.9-2.1.7-6,.9-6.4.7-1.6,2.1-2.4,3.2-2.4s.2,0,.3,0c.8.1,1.2.6,1.3,1.3.2,1.7-.2,5.3-.8,6.5Z"/>
    <path class="st0" d="M17.7,2.1C14.6,0,10.5.1,7.6,2.3c-2.7,2-3.6,5.2-2.6,8.6.7,2.2,2.1,3,3.7,3.9.5.3,1,.6,1.6.9.2.2.5.3.7.5,1.7,1.1,3,1.9,3.1,4.2.1,2.5-1.8,3.5-3.6,3.6-1.9.1-4.2-.8-4.3-2.3,0-.8.5-1,1.1-1.3.7-.3,1.4-.6,1.3-1.9-.3-1.2-1.2-1.8-2.4-1.9-1.6,0-3.6,1.1-4.3,3-.9,2.5-.2,5.8,4.2,7.4,1.3.5,2.7.7,4,.7s2-.1,3-.4c2.5-.7,4.4-2.3,5.2-4.5,1.3-3.3.6-6.3-1.9-8.6-.6-.6-1.6-1.1-2.6-1.7-2.6-1.5-5.6-3.2-4.4-6,.9-2,2.9-2.6,4.4-2.1,1,.3,1.5.9,1.4,1.6,0,.6-.3,1.1-.6,1.5-.2.5-.4.9-.3,1.3.1.4.5.7,1.3,1,1.6.7,3,.3,3.8-1.1.5-1,.7-2.3.4-3.5-.3-1.4-1.1-2.6-2.2-3.3Z"/>
    <path class="st0" d="M158.4,22.1h0c-.3-.4-.9,0-1.5.5-.6.4-1.2.9-1.7.8-.2,0-.3-.2-.4-.4-.3-.6,0-2.3.4-3.9.3-1.2.5-2.4.6-3.3.2-3.2-1.2-4.5-2.4-5-2.1-1-4.9-.2-6,.7.5-2.2,1.9-8.8,1.5-9.6-.2-.4-.9-.6-1.9-.4-1.1.1-2.3.7-2.5,1.4-.2.7-.8,4.1-1.5,7.7-.5,2.5-1,5.1-1.4,7-.2.9-.5,2.1-.7,3.3-.9,4-1.3,5.9-1,6.3.6.5,3.8.5,4.5,0,.4-.3,1.1-3.4,2.1-10.2v-.6c.3-1.2,2-2.2,3.2-2.2.9,0,1.4.6,1.5,1.7,0,1-.3,2.3-.6,3.7-.5,2-1,4.1-.5,5.4.2.5,1.2,2.7,4.1,2.7s3.2-1.6,3.6-2.3c.7-1.1,1-2.4.7-3h0Z"/>
    <path class="st0" d="M124.5,29.3c-.4-.2-1,.2-1.7.6-.9.5-2,1.2-3.4,1.3-.5,0-1,0-1.4,0-7,0-10.7-6.8-13.7-12.3l-.3-.5c0-.3,1.1-.9,1.8-1.3.6-.3,1.1-.7,1.3-.9,1.4-1.3,2.4-3.2,2.6-5.1.7-6.4-4.3-10.2-9.6-11-2.9-.5-5.9-.1-8.3,1-2.7,1.3-4.4,3.4-5,6.1-.5,2.2,0,5.3,1.2,6.6.4.7,2.5.6,3.5.2.6-.3.7-.6.6-.8h0c-.5-1.7-1.1-4-.3-5.7,1.1-2.4,4.8-4.3,8.4-3.1,5.1,1.6,4.9,5.9,4.9,5.9,0,1.1-.7,4.6-5.6,5-.3,0-.5.2-.6.5-.3.8-.6,2.4,0,3.5,0,.1,6.5,11.2,9.8,14.5,3.1,3,5.3,4.4,9.6,4.4s6.2-2.3,6.8-3.6c.8-1.6.6-3.6,0-4.8-.1-.4-.3-.6-.6-.6Z"/>
    <path class="st0" d="M100.1,8.4c0-.4-.2-.8-.6-1-1-.6-3-.4-3.9.1-.4.3-.5.6-.5.8-.2.9-3.5,18.1-3.5,18.8s1.1.6,1.6.7c.2,0,.5,0,.8,0,1,0,2.2-.2,2.3-.9h0c.7-3.8,2.3-13.1,3.9-18.5h0s0,0,0,0Z"/>
    <path class="st0" d="M135.3,13.6c.2.2.4.4.6.6.3.4.5.8,1.3.7.2,0,1.5-.5,1.9-.8.1-.1.2-.3.2-.5,0-.7-.4-1.7-1.2-2.6-1.9-1.8-5.3-1.9-7.6-.3-1.9,1.3-2.4,3.5-1.3,5.9.8,1.1,1.9,1.8,2.9,2.4,1.4.8,2.6,1.5,2.4,3.1,0,.7-.4,1.3-1,1.7-.8.6-1.8.7-2.2.7-.3,0-.7-.2-.8-.5,0-.2,0-.8,1.3-1.8.2-.2.3-.4.2-.7-.2-.7-1.2-1.7-2.4-1.9-1-.2-1.9.2-2.4,1-.6.9-1.3,1.7-1.9,2.2-.5.4-1,.5-1.4.3-.3-.1-.4-.5-.4-.9,0-1.7.8-4.8,1.5-7.2.8-2.8,1-3.9.8-4.2-.5-.6-3.7-.6-4.6-.2-.3.1-.4,1-.7,3.1-.4,3.1-.9,7.8-2.7,9.3-.6.5-1.6.9-2.3.7-.2,0-.5-.2-.7-.4-.2-.2-.3-.5-.3-.8,0-2.5,1.2-7.8,1.7-10.5v-.7c.2-.1.1-.3-.1-.5-.8-.6-3.3-.5-3.9-.2-.5.3-1.2,4.6-2.1,10.1l-.3,2.1c0,1.6.5,2.8,1.6,3.7,1.7,1.3,4.1,1.2,5.4.8,1.3-.4,2-1.2,2.4-1.8h0c.5,1.3,1.5,1.7,2.3,1.9.2,0,.5,0,.7,0,1.3,0,2.8-.6,3.7-1.7,0,0,0,0,0,0h0c0,0,0-.1.1-.2,0,0,0-.1.1-.2,0-.1.1-.2.2-.3,0,0,0,0,0,0,1.7,1.8,3.6,2.7,5.8,2.7s2.2-.2,3.3-.6c1.6-.6,2.7-1.7,3.2-3.2.5-1.6.1-3.6-1-5.1-.5-.7-1.5-1.4-2.5-2.1-.9-.6-1.7-1.2-1.9-1.6-.3-.6-.3-1.1,0-1.4.4-.4,1.2-.5,1.8-.1h0Z"/>
  </g>
</svg>